# xmcd
#
# Track frame offsets:
#	150
#	16417
#	33282
#	47435
#	65465
#	79475
#	94785
#	112715
#	132640
#	147787
#	165862
#	181720
#	202490
#
# Disc length: 2959 seconds
#
# Revision: 0
# Processed by: cddbd v1.5.1PL0 Copyright (c) Steve Scherf et al.
# Submitted via: dBpowerAMP V4.0
#
DISCID=a80b8d0d
DTITLE=Os Mateadores - Heranca de campeiro
DYEAR=1900
DGENRE=gaucho
TTITLE0=Heranca de campeiro
TTITLE1=tapadinho de vaneira
TTITLE2=por te amar tanto
TTITLE3=aproveitando o apagao
TTITLE4=pra quem doma
TTITLE5=tranco feio
TTITLE6=fandango no itaqui
TTITLE7=vem meu amor
TTITLE8=nao queira ser patrao
TTITLE9=bate coracao
TTITLE10=onde foi que eu errei
TTITLE11=pra quem esta distante
TTITLE12=baile das negra touro
EXTD=
EXTT0=
EXTT1=
EXTT2=
EXTT3=
EXTT4=
EXTT5=
EXTT6=
EXTT7=
EXTT8=
EXTT9=
EXTT10=
EXTT11=
EXTT12=
PLAYORDER=
